<svg xmlns="http://www.w3.org/2000/svg" viewBox="0 0 400 300">
  <defs>
    <linearGradient id="g" x1="0%" y1="0%" x2="100%" y2="100%">
      <stop offset="0%" stop-color="#B03030"/>
      <stop offset="100%" stop-color="#4A0E0E"/>
    </linearGradient>
  </defs>
  <rect width="400" height="300" fill="url(#g)"/>
  <!-- Italian flag stripe hint -->
  <rect x="0" y="0" width="134" height="300" fill="rgba(0,120,50,0.12)"/>
  <rect x="266" y="0" width="134" height="300" fill="rgba(200,0,0,0.12)"/>
  <!-- Olive oil bottle -->
  <g transform="translate(155,50)">
    <rect x="12" y="0" width="16" height="14" rx="3" fill="rgba(255,255,255,0.5)"/>
    <path d="M6 14 L10 40 L10 130 Q10 140 20 140 Q30 140 30 130 L30 40 L34 14 Z" fill="rgba(220,180,80,0.6)" stroke="rgba(255,255,255,0.3)" stroke-width="1"/>
    <!-- Label -->
    <rect x="12" y="55" width="16" height="30" rx="2" fill="rgba(255,255,255,0.35)"/>
  </g>
  <!-- Tomatoes -->
  <g fill="rgba(220,60,40,0.75)">
    <circle cx="100" cy="175" r="22"/>
    <circle cx="145" cy="185" r="18"/>
  </g>
  <g fill="rgba(30,100,30,0.7)">
    <path d="M100 153 Q95 145 90 148 Q93 155 100 153Z"/>
    <path d="M100 153 Q105 145 110 148 Q107 155 100 153Z"/>
  </g>
  <!-- Pasta bundle shape -->
  <g transform="translate(240,120)" fill="none" stroke="rgba(220,190,130,0.55)" stroke-width="3" stroke-linecap="round">
    <line x1="0" y1="0" x2="60" y2="80"/>
    <line x1="10" y1="0" x2="70" y2="80"/>
    <line x1="20" y1="0" x2="80" y2="80"/>
    <line x1="30" y1="0" x2="90" y2="80"/>
    <line x1="40" y1="0" x2="100" y2="80"/>
    <ellipse cx="30" cy="0" rx="35" ry="10" fill="rgba(180,140,80,0.4)" stroke="rgba(180,140,80,0.4)"/>
    <ellipse cx="80" cy="80" rx="35" ry="10" fill="rgba(180,140,80,0.4)" stroke="rgba(180,140,80,0.4)"/>
  </g>
  <rect x="0" y="248" width="400" height="52" fill="rgba(0,0,0,0.4)"/>
  <text x="200" y="271" text-anchor="middle" font-size="11" font-family="Georgia,serif" fill="rgba(201,169,110,0.9)" letter-spacing="3">GENUSSBOX</text>
  <text x="200" y="290" text-anchor="middle" font-size="15" font-family="Georgia,serif" font-weight="bold" fill="white" letter-spacing="1">Bella Italia Box</text>
</svg>
