<svg xmlns="http://www.w3.org/2000/svg" viewBox="0 0 400 300">
  <defs>
    <linearGradient id="g" x1="0%" y1="0%" x2="100%" y2="100%">
      <stop offset="0%" stop-color="#8B1A1A"/>
      <stop offset="100%" stop-color="#2A0808"/>
    </linearGradient>
  </defs>
  <rect width="400" height="300" fill="url(#g)"/>
  <!-- Plate -->
  <ellipse cx="200" cy="165" rx="120" ry="55" fill="rgba(255,255,255,0.08)" stroke="rgba(255,255,255,0.2)" stroke-width="1.5"/>
  <ellipse cx="200" cy="162" rx="100" ry="45" fill="rgba(255,255,255,0.05)"/>
  <!-- Steak shape -->
  <g transform="translate(200,155)">
    <ellipse cx="0" cy="0" rx="70" ry="30" fill="rgba(140,60,20,0.85)"/>
    <!-- Marbling lines -->
    <path d="M-40 -8 Q-10 -18 20 -5 Q40 2 60 -10" fill="none" stroke="rgba(255,220,180,0.25)" stroke-width="2.5" stroke-linecap="round"/>
    <path d="M-50 5 Q-20 15 10 8 Q35 3 55 12" fill="none" stroke="rgba(255,220,180,0.2)" stroke-width="2" stroke-linecap="round"/>
    <path d="M-30 -2 Q0 10 30 0" fill="none" stroke="rgba(255,220,180,0.2)" stroke-width="1.5" stroke-linecap="round"/>
    <!-- Sear marks -->
    <path d="M-45 -12 L-30 18" stroke="rgba(60,20,10,0.6)" stroke-width="5" stroke-linecap="round"/>
    <path d="M-20 -18 L-5 18" stroke="rgba(60,20,10,0.6)" stroke-width="5" stroke-linecap="round"/>
    <path d="M10 -18 L25 18" stroke="rgba(60,20,10,0.6)" stroke-width="5" stroke-linecap="round"/>
  </g>
  <!-- Champagne glass hint (small) -->
  <g fill="rgba(255,255,255,0.5)" transform="translate(300,55)">
    <path d="M10 0 Q12 28 7 44 L5 52 L3 54 L3 57 L17 57 L17 54 L15 52 L13 44 Q8 28 10 0Z"/>
  </g>
  <!-- Wine glass hint -->
  <g fill="rgba(255,255,255,0.5)" transform="translate(80,50)">
    <ellipse cx="16" cy="10" rx="15" ry="8"/>
    <path d="M5 10 Q3 30 12 42 L8 58 L5 60 L5 63 L27 63 L27 60 L24 58 L20 42 Q29 30 27 10Z"/>
  </g>
  <rect x="0" y="248" width="400" height="52" fill="rgba(0,0,0,0.4)"/>
  <text x="200" y="271" text-anchor="middle" font-size="11" font-family="Georgia,serif" fill="rgba(201,169,110,0.9)" letter-spacing="3">TASTING-GUTSCHEIN</text>
  <text x="200" y="290" text-anchor="middle" font-size="13" font-family="Georgia,serif" font-weight="bold" fill="white" letter-spacing="1">Wagyu, Wein &amp; Champagner</text>
</svg>
