<svg xmlns="http://www.w3.org/2000/svg" viewBox="0 0 400 300">
  <defs>
    <linearGradient id="g" x1="0%" y1="0%" x2="100%" y2="100%">
      <stop offset="0%" stop-color="#C9A96E"/>
      <stop offset="100%" stop-color="#7A5C2A"/>
    </linearGradient>
  </defs>
  <rect width="400" height="300" fill="url(#g)"/>
  <!-- Bubble dots -->
  <g fill="rgba(255,255,255,0.25)">
    <circle cx="150" cy="200" r="4"/><circle cx="170" cy="175" r="3"/><circle cx="155" cy="155" r="5"/>
    <circle cx="175" cy="130" r="3"/><circle cx="162" cy="108" r="4"/><circle cx="178" cy="85" r="3"/>
    <circle cx="230" cy="195" r="3"/><circle cx="245" cy="170" r="4"/><circle cx="228" cy="148" r="3"/>
    <circle cx="240" cy="125" r="5"/><circle cx="225" cy="100" r="3"/><circle cx="242" cy="78" r="4"/>
    <circle cx="195" cy="210" r="3"/><circle cx="205" cy="185" r="4"/><circle cx="198" cy="160" r="3"/>
  </g>
  <!-- Champagne flutes -->
  <g fill="rgba(255,255,255,0.72)" transform="translate(150,50)">
    <path d="M14 0 Q18 40 10 70 L6 80 L4 82 L4 86 L22 86 L22 82 L20 80 L16 70 Q8 40 12 0Z"/>
    <path d="M62 0 Q66 40 58 70 L54 80 L52 82 L52 86 L70 86 L70 82 L68 80 L64 70 Q56 40 60 0Z"/>
    <!-- Clinking hint -->
    <line x1="22" y1="8" x2="50" y2="8" stroke="rgba(255,255,255,0.5)" stroke-width="2"/>
  </g>
  <!-- Popcorn kernels -->
  <g fill="rgba(255,255,255,0.5)" transform="translate(180,170)">
    <circle cx="0" cy="0" r="8"/><circle cx="18" cy="-5" r="7"/><circle cx="36" cy="2" r="8"/>
    <circle cx="9" cy="-14" r="6"/><circle cx="27" cy="-16" r="7"/>
  </g>
  <rect x="0" y="248" width="400" height="52" fill="rgba(0,0,0,0.3)"/>
  <text x="200" y="271" text-anchor="middle" font-size="11" font-family="Georgia,serif" fill="rgba(255,255,255,0.75)" letter-spacing="3">TASTING-GUTSCHEIN</text>
  <text x="200" y="290" text-anchor="middle" font-size="13" font-family="Georgia,serif" font-weight="bold" fill="white" letter-spacing="1">Champagner &amp; Popcorn</text>
</svg>
