<svg xmlns="http://www.w3.org/2000/svg" viewBox="0 0 400 300">
  <defs>
    <linearGradient id="g" x1="0%" y1="0%" x2="100%" y2="100%">
      <stop offset="0%" stop-color="#3D2B6B"/>
      <stop offset="100%" stop-color="#1A0E3A"/>
    </linearGradient>
  </defs>
  <rect width="400" height="300" fill="url(#g)"/>
  <!-- City skyline silhouette -->
  <g fill="rgba(255,255,255,0.12)">
    <rect x="20" y="160" width="30" height="80"/>
    <rect x="55" y="140" width="20" height="100"/>
    <rect x="80" y="155" width="25" height="85"/>
    <rect x="110" y="130" width="35" height="110"/>
    <rect x="150" y="145" width="20" height="95"/>
    <rect x="175" y="120" width="40" height="120"/>
    <rect x="220" y="135" width="30" height="105"/>
    <rect x="255" y="150" width="25" height="90"/>
    <rect x="285" y="125" width="45" height="115"/>
    <rect x="335" y="145" width="20" height="95"/>
    <rect x="360" y="160" width="30" height="80"/>
  </g>
  <!-- Sunset circle -->
  <circle cx="200" cy="155" r="50" fill="rgba(255,150,50,0.25)"/>
  <circle cx="200" cy="155" r="30" fill="rgba(255,180,80,0.2)"/>
  <!-- Wine glass -->
  <g fill="rgba(255,255,255,0.7)" transform="translate(176,70)">
    <ellipse cx="24" cy="14" rx="22" ry="11"/>
    <path d="M6 14 Q3 42 18 58 L12 76 L8 78 L8 82 L40 82 L40 78 L36 76 L30 58 Q45 42 42 14Z"/>
  </g>
  <rect x="0" y="248" width="400" height="52" fill="rgba(0,0,0,0.4)"/>
  <text x="200" y="271" text-anchor="middle" font-size="11" font-family="Georgia,serif" fill="rgba(201,169,110,0.9)" letter-spacing="3">TASTING-GUTSCHEIN</text>
  <text x="200" y="290" text-anchor="middle" font-size="14" font-family="Georgia,serif" font-weight="bold" fill="white" letter-spacing="1">Afterwork Wein Tasting</text>
</svg>
